<mxfile host="app.diagrams.net" modified="2023-07-06T12:39:32.783Z" agent="Mozilla/5.0 (Windows NT 10.0; Win64; x64) AppleWebKit/537.36 (KHTML, like Gecko) Chrome/114.0.0.0 Safari/537.36" version="21.3.8" etag="n8ueP74IZLf_yaqJZiRA" type="github">
  <diagram name="Page-1" id="_dPSlkuJ2cjs9rxoLk-S">
    <mxGraphModel>
      <root>
        <mxCell id="0" />
        <mxCell id="1" parent="0" />
      </root>
    </mxGraphModel>
  </diagram>
</mxfile>
